<?xml version="1.0" encoding="utf-8" ?>	<!-- Generator: Assembly 2.4 - http://assemblyapp.co -->	<svg version="1.1" xmlns="http://www.w3.org/2000/svg" xmlns:xlink="http://www.w3.org/1999/xlink" width="900.00" height="600.00" viewBox="0 0 900.0 600.0">		<rect x="0" y="0" width="900.00" height="600.00" fill="#ffffff" />		<g id="document" transform="scale(0.21996699183820242 0.21996699183820242) translate(2048.0 1365.3333333333333)">			<path d="M-1275.61,-917.862 L-1499.73,-856.478 L-1314.59,-715.043 L-1325.51,-482.831 L-1134.58,-615.104 L-917.199,-533.26 L-984.289,-755.838 L-839.124,-938.067 L-1071.45,-943.076 L-1199.05,-1137.12 L-1275.61,-917.862 Z " fill="#ffffff" fill-opacity="1.00" />			<path d="M-3.71183,229.133 L-2048.03,229.133 L-2048.03,1365.61 L-3.71183,1365.61 L-3.71183,229.133 Z " fill="#f00000" fill-opacity="1.00" />			<path d="M-227.671,-1365.56 L-2048.17,-1365.56 L-2048.17,-227.595 L-227.671,-227.595 L-227.671,-1365.56 Z " fill="#87cefa" fill-opacity="1.00" />			<path d="M2048,227.533 L-129.028,227.533 L-88.5631,1365.63 L2048,1365.63 L2048,227.533 Z " fill="#f00000" fill-opacity="1.00" />			<path d="M-869.895,-428.064 L-964.253,-738.83 L-704.769,-935.75 L-1031.72,-935.75 L-1137.58,-1250.62 L-1245.05,-935.75 L-1570.4,-935.75 L-1310.92,-738.83 L-1405.27,-428.064 L-1137.58,-613.703 L-869.895,-428.064 Z " fill="#ffffff" fill-opacity="1.00" />			<path d="M-218.235,-238.667 L-218.235,-1352.51 " fill="none" stroke-width="23.04" stroke="#ffffff" stroke-linecap="square" stroke-linejoin="miter" />			<path d="M240.666,-239.967 L240.666,-1353.41 " fill="none" stroke-width="23.04" stroke="#afdbf5" stroke-linecap="square" stroke-linejoin="miter" />			<path d="M2036.47,-1365.67 L215.973,-1365.67 L215.973,-227.708 L2036.47,-227.708 L2036.47,-1365.67 Z " fill="#87cefa" fill-opacity="1.00" />			<path d="M11.5221,-1041.52 L216.187,-1041.52 " fill="none" stroke-width="23.04" stroke="#d81bdd" stroke-linecap="square" stroke-linejoin="miter" />			<path d="M-195.191,-1187.09 L9.47456,-1187.09 " fill="none" stroke-width="23.04" stroke="#d81bdd" stroke-linecap="square" stroke-linejoin="miter" />			<path d="M-216.158,-1041.52 L-11.5222,-1041.52 " fill="none" stroke-width="23.04" stroke="#d81bdd" stroke-linecap="square" stroke-linejoin="miter" />			<path d="M-195.191,-1210.13 L9.44516,-1210.13 " fill="none" stroke-width="23.04" stroke="#d81bdd" stroke-linecap="square" stroke-linejoin="miter" />			<path d="M240.18,239.342 L2036.5,239.342 " fill="none" stroke-width="23.04" stroke="#f00000" stroke-linecap="square" stroke-linejoin="miter" />			<path d="M239.382,239.253 L239.382,1354.15 " fill="none" stroke-width="23.04" stroke="#bb1515" stroke-linecap="square" stroke-linejoin="miter" />			<path d="M-240.795,239.383 L-240.795,1354.28 " fill="none" stroke-width="23.04" stroke="#bb1515" stroke-linecap="square" stroke-linejoin="miter" />			<path d="M-263.839,239.383 L-2036.48,239.383 " fill="none" stroke-width="23.04" stroke="#f00000" stroke-linecap="square" stroke-linejoin="miter" />			<path d="M1218.19,-122.193 L1218.19,83.0254 " fill="none" stroke-width="23.04" stroke="#d81bdd" stroke-linecap="square" stroke-linejoin="miter" />			<path d="M228.66,-227.962 L2049.3,-227.962 L2049.3,-228.447 L228.66,-228.447 L228.66,-227.962 Z " fill="#afdbf5" fill-opacity="1.00" />			<path d="M228.657,-227.951 L2049.3,-227.951 L2049.3,-228.435 L228.657,-228.435 L228.657,-227.951 Z " fill="#0038a7" fill-opacity="1.00" />			<path d="M-2048,227.872 L-229.308,227.872 L-229.308,227.388 L-2048,227.388 L-2048,227.872 Z " fill="#f00000" fill-opacity="1.00" />			<path d="M-442.159,216.209 L672.786,216.209 " fill="none" stroke-width="23.04" stroke="#4d4d4d" stroke-linecap="square" stroke-linejoin="miter" />			<path d="M1604.54,277.134 L1604.54,-178.556 L231.054,-178.556 L231.054,-1555.25 L-227.845,-1555.25 L-227.845,-181.765 L-1604.54,-181.765 L-1604.54,277.134 L-231.054,277.134 L-231.054,1653.83 L227.845,1653.83 L227.845,277.134 L1604.54,277.134 Z " fill="#ffffff" fill-opacity="1.00" />			<path d="M228.658,227.86 L2048,227.86 L2048,227.376 L228.658,227.376 L228.658,227.86 Z " fill="#f00000" fill-opacity="1.00" />			<path d="M-229.757,-1365.33 L-229.757,-228.434 L-229.273,-228.434 L-229.273,-1365.33 L-229.757,-1365.33 Z " fill="#afdbf5" fill-opacity="1.00" />			<path d="M228.66,-1365.33 L228.66,-228.447 L229.144,-228.447 L229.144,-1365.33 L228.66,-1365.33 Z " fill="#afdbf5" fill-opacity="1.00" />			<path d="M-216.141,-226.949 L-216.141,-1340.98 " fill="none" stroke-width="23.04" stroke="#ffffff" stroke-linecap="square" stroke-linejoin="miter" />			<path d="M240.54,216.209 L2036.47,216.209 " fill="none" stroke-width="23.04" stroke="#ffffff" stroke-linecap="square" stroke-linejoin="miter" />			<path d="M240.566,204.687 L2036.5,204.687 " fill="none" stroke-width="23.04" stroke="#ffffff" stroke-linecap="square" stroke-linejoin="miter" />			<path d="M-896.667,204.687 L899.264,204.687 " fill="none" stroke-width="23.04" stroke="#ffffff" stroke-linecap="square" stroke-linejoin="miter" />			<path d="M-2036.75,216.209 L504.625,216.209 " fill="none" stroke-width="23.04" stroke="#ffffff" stroke-linecap="square" stroke-linejoin="miter" />			<path d="M239.142,239.25 L239.142,1354.26 " fill="none" stroke-width="23.04" stroke="#f00000" stroke-linecap="square" stroke-linejoin="miter" />			<path d="M250.904,239.25 L250.904,1354.26 " fill="none" stroke-width="23.04" stroke="#f00000" stroke-linecap="square" stroke-linejoin="miter" />			<path d="M-239.185,239.253 L-239.185,1354.27 " fill="none" stroke-width="23.04" stroke="#f00000" stroke-linecap="square" stroke-linejoin="miter" />			<path d="M-252.317,239.383 L-252.317,1354.4 " fill="none" stroke-width="23.04" stroke="#f00000" stroke-linecap="square" stroke-linejoin="miter" />			<path d="M-226.668,-813.447 L-226.668,179.553 " fill="none" stroke-width="2.00" stroke="#ffffff" stroke-linecap="square" stroke-linejoin="miter" />			<path d="M-227.663,227.73 L-2048.16,227.73 L-2048.16,1365.69 L-227.663,1365.69 L-227.663,227.73 Z " fill="#ce0000" fill-opacity="1.00" />			<path d="M2048.12,227.727 L227.619,227.727 L227.619,1365.69 L2048.12,1365.69 L2048.12,227.727 Z " fill="#ce0000" fill-opacity="1.00" />			<path d="M935.188,-2052.54 L843.188,-2355.54 L1096.19,-2547.54 L778.188,-2554.54 L674.188,-2854.54 L570.188,-2554.54 L252.188,-2547.54 L505.188,-2355.54 L413.188,-2052.54 L674.188,-2233.54 L935.188,-2052.54 Z " fill="#000000" fill-opacity="1.00" />		</g>	</svg>